<?xml version="1.0" encoding="UTF-8"?>
<svg id="Capa_1" xmlns="http://www.w3.org/2000/svg" version="1.1" viewBox="0 0 1186 428">
  <!-- Generator: Adobe Illustrator 30.1.0, SVG Export Plug-In . SVG Version: 2.1.1 Build 136)  -->
  <defs>
    <style>
      .st0 {
        fill: #66bc6d;
      }

      .st1 {
        fill: #62655f;
      }

      .st2 {
        fill: #327f40;
      }

      .st3 {
        fill: #636661;
      }

      .st4 {
        fill: #5e635d;
      }

      .st5 {
        fill: #22532d;
      }
    </style>
  </defs>
  <g>
    <path class="st1" d="M111.1,293c.19.68-.19,1.89.28,2.63-1.81,2.73,7.44-2.79,8.09-3.16,8.71-5,8.64-.56,9.49-4.08,2.03.95,3.22,1.56,4.95,2.74l27.39,18.6c1.18.8.9,3.9.68,5.16-.66,3.91.82,7,.82,10.56l.19,71.73c-4.51-.24-6.88-3.13-10-5.09l-19.69-12.42-20-12.99-28.99-18.99-22.39-14.64c-2.33-1.53-9.98-6.33-11.36-7.66-3.29-3.2-8.8-2.55-8.61-13.34l.33-19.65c.02-1,.78-2.15,1.33-2.36.6-.23,2.04,0,2.8.54,6.62,4.68,13.08,8.89,19.95,13.13l6.19,3.82,5.93,4.03c5.36,3.65,6.41-1.19,11.93-3.95.92-.46,18.99-13.21,20.69-14.61h0Z"/>
    <path class="st4" d="M128.97,288.38c-.84,3.52-.78-.92-9.49,4.08-.65.38-9.9,5.89-8.09,3.16-.48-.74-.1-1.95-.28-2.63,1.36-.89,2.23-1.62,2.86-2.65-5.26-5.15-7.93-.95-14.25,3.36s-12.08,8.48-18.63,12.26c-4.57-2.2-8.08-5.23-12.08-7.96l-13.72-9.38c-4.12-2.82-8.93-4.79-12.4-8.56-1.97-2.15-.81-7.01-.5-9.65.2-1.68,2.23-1.75,3.27-1.11,3.16,1.56,5.5,3.84,8.34,5.74l21.73,14.53.82-30.29c.94-2.84,8.08-3.09,10.16-.78l.4,30.66,19.48-13.5c1.7-1.18,3.81-.79,5.22.6l11.39,7.54c2.1,1.39,3.82,3.68,5.77,4.59h0Z"/>
  </g>
  <g>
    <path class="st4" d="M138.7,86.12c-4.86-1.99-3.36-.27-7.56-.02-1.59-9.76-.02-19.66-1.03-30.14-2.99.35-4.71,1.94-5.31,3.85-.74,0-1.22.78-1.64,1.18-1.4.19-2.62,1.06-4.04,2.03l-7.17,4.91c-1.04.71-1.24,2.17-1.94,2.55-.78.42-1.57.93-2.15,1.57-1.56-.83-15.17,9.58-16.13,11.08-.79.47-1.89,1.1-2.58,1.86,2.48-2.72-18.45,12.16-18.73,12.36l-11.15,7.96c-1.12.8-1.76,2.09-1.76,3.7l.11,64.93c0,4.67-.08,8.85.38,12.93.08.73-.14,1.54-.1,2.28.11,2.09-1.5,6.35.81,7.99l17.12,12.11,15.12,9.97,37.11,24.71c.56.37,1.58.4,2.02.92,3.77,4.8,9.76,7.32,15.16,10.78,2.92,1.88,7.04,5.21,8.78,5.38.17.39.84.57,1.14.86.67,1.48,2.24,2.23,3.75,2.32.54.36,1.24,1.13,2.07.93.85,2.04,2.95,2.86,4.83,3.74.63.29,1.38,1.27,2.2,1.23.66,1.12,1.76,1.97,3.12,2.89l22.31,15.09.32,27.94c.05,4.58-.35,8.82.22,12.88.13.92.11,2.15,0,3.07-.5,3.64-.51,7.33.02,10.97.1.67-.03,1.42-.07,2.09-.49,9.8-.36,19.5-.07,30.18,4.91-1.52,11.65-8.86,14.05-9.13,1.68-.19,2.31-1.81,2.68-2.8,1.12.07,1.81-.94,2.63-1.49.74-.49,2.08-.39,3.12-1.24,4.63-3.81,10.18-6.24,13.98-10.34.89-.17,1.8-1.03,2.59-1.41,2.65-1.28,5.01-3.14,7.73-4.99l13.75-9.34c.95-.65,1.52-1.37,1.64-2.23,4.91-1.18,5.01-2.38,5.98-4.35.45-.92.71-1.6.71-2.69l.14-39.3c0-.93-.09-1.86.02-2.79.46-13.56.2-27.37-.13-42.01-6.88-4.11-13.02-8.55-19.67-13.08l-41.6-28.35c-1.26-.86-2.43-1.16-3.39-1.66-.63-.33-1.3-1.12-2.12-1.04-.09-1.56-2.62-1.15-3.06-1.99-.59-1.14-1.88-1.18-2.58-1.93-.99-1.06-1.76-2.07-3.35-3.14l-29.93-20.04c-1.43-.96-2.86-1.37-3.98-1.99-.64-.35-1.59-1.33-2.21-1.81-1.19-.92-2.11-2-3.55-2.63-.73-.32-1.35-1.61-2.37-1.46-2.39-3.39-12.35-7.54-14.35-11.31l-.6-31.55c0-.67-.04-1.4.13-2.02l.28-1.04c3.86-.24,5.37-2.54,8.29-3.14l.35,33.97c4.98,3.31,9.81,6.12,14.67,9.44l19.58,13.4,15,10.02,27.93,19.03c7.06,4.81,11.51,7.77,18.59,12.48l31.81,21.2c1.6,1.06,5.21,2.27,5.22,4.64l.13,46.96v48c.14,1.55-1.32,2.34-2.71,3.3l-14.83,10.19c-2.86,1.97-5.64,3.67-8.48,5.65l-11.07,7.73-11.17,7.87-8.3,5.71c-3.25,2.24-6.33,4.28-9.54,6.44l-17.9,12.04c-.74.5-1.6.69-2.02.49-.32-.15-.99-.7-.99-1.51v-88.86c0-2.57.23-6.69-1.86-8.13l-18.42-12.65-20.82-14.16c-5.08-3.45-7.87-5.23-13.19-8.84l-30.92-20.98c-3.24-2.2-6.22-4.46-9.56-6.43-4.82-2.85-9.11-6.03-13.79-9.09l-9.83-6.43c-4.87-3.19-9.36-6.57-14.32-9.53-3.18-1.9-4.4-5.1-4.36-8.79l.45-43.76c.03-3.15.64-5.28.08-8.54-1.21-7.06.14-23.72-.21-25.75-.63-3.65-.42-12.6,1.16-16.74l50.28-35.45,14.62-10.46,17.29-11.76c2.45-1.67,4.41-3.46,7.45-4.47l-.34,47.03.04-.05Z"/>
    <path class="st3" d="M138.7,86.12l.3,7.88c-.47-.19-.96.3-.96,1.02v11.95c0,.72.49,1.22.96,1.02,0,1.6-.3,3.29-.28,4.87-2.92.6-4.43,2.9-8.29,3.14l.06-27.02c0-1.18.76-2.19.65-2.89,4.2-.25,2.71-1.97,7.56.02h0Z"/>
    <path class="st0" d="M272,332v-48c.45-.19.99.31.99,1.06l.06,44.99c0,1.1-.59,1.66-1.05,1.96h0Z"/>
    <path class="st4" d="M139,108c-.47.19-.96-.3-.96-1.02v-11.95c0-.72.49-1.22.96-1.02v14h0Z"/>
    <path class="st5" d="M244.79,265.17l-.13,23.39-7.3,5.94c.7,2.29.72,4.75.62,7.15-.36,0-.74.19-1.1.18-.48-.82-.98-1.48-1.87-1.83-.57-1.2-1.49-2.24-3-2v-6c.74.05,1.69.24,2-.51.25-.61.03-1.25-.5-1.48-.41-.18-1,.05-1.5,0v-25l12.79.17h0Z"/>
    <path class="st5" d="M88.07,145.09l.35,38.88c.02,2.5,6.98,5.18,6.65,6.84-6.29,2.13-11.07-4.84-10.91-4.05-.86-4.23-1.96-9.14-.61-13.22.74-2.25.07-2.89-.03-5.03l-1.04-20.58-.8,19.86c-.1,2.36-.5,4.06.03,6.46,1.38,6.18-1.82,12.69,2.11,14.85,3.48,1.91,5.26,6.36,15.19,3.95,2.69,1.42,16.17,10.46,17.75,12.08,1.94,1.99,3.9,2.57,6.07,4.03l44.17,29.66c.36,3.11-.74,6.22.62,9.81,2.87,1.04.05-8.85,2.38-7.52l12.39,7.71c-.24,3.9,1.53,6.84,3.89,8.42,2.66,1.78,5.83,2.09,8.72.6,2.27-1.17,3.25-3.36,4.87-4.8,12.76.16,11.91,3.24,21.45,12.88l-.05,24.24c.91,1.01,7.93,7.46,8.43,6.17.38,2.66.18,5.44.13,8.62l-.21,12.1c-.06,3.45-8.36,4.86-5.98,12.81,1.14,3.79,4.91,6.6,9.17,5.96,3.81-.57,6.05-3.64,6.69-6.55,1.8-8.05-7.07-9.08-6.99-12.21.15-6.03-.21-11.55-.52-17.06h3c.31.87.87,1.78,1.87,1.83.93,1.59,3.26,13.86-1.12,16.64,7.59,1.78,1.54-13.33,5.34-13.48,1.26.96,3.38,1.05,4.84,1.29,1,1.56.56,3.51.55,5.71l-.11,14.05c-.04,4.71-3.09,6.62-.51,7.53,3.64,1.28,2.05-8.48,2.12-10.51.18-5.63.81-10.83.03-15.92,3.53-3.03,6.8-4.46,6.21-10.58-.57-5.9-6.67-4.94-6.66-9.52l.1-35.07c0-1.97-.52-3.35-2.09-4.43l-18.42-12.61c-.97-.67-1.84-1.05-2.14-1.92,3.68.71,16.78-1.36,18.55.36,2.3,2.24,5.31,4.28,6.86,7.03,1.37,2.43,0,5.78.8,8.5,1.35,4.64-3.68,10.6,1.26,9.23.8-.22,2.04-1.44,1.12-2.72-2.77-3.84.65-10.7-1.21-16.06-10.77-12.98-8.88-6.77-20.34-8.3-2.74-.36-5.19-.05-7.36.34-1.01.18-2.13.31-3.41-.55l-23.26-15.71.09-17.15c.96.5,2.13.8,3.39,1.66l41.6,28.35c6.65,4.53,12.79,8.96,19.67,13.08.33,14.64.59,28.44.13,42.01-1.75-.58-1.53-2.14-1.47-4.05l.52-16.73c-3.6.54-6.53.98-10.28.63-2.12-.23-2.09,1.86-.02,1.69,2.68.38,4.99-.49,7.34.32,1.21.42,1.1,3.43-.17,3.85-3.38,1.12-7.87-1.65-8.75.91-1.28,3.7,7.5.29,9.93,1.45l.25,11.84c-3.92,1.39-10.05-1.31-10.07,1.53-.03,3.36,8.18-.16,12.69,1.35l-.14,39.3c-1.53.25-2.88-.72-4.82-1.17-1.27-.3-1.9.81-1.95,1.45-.06.7.04,2.49,1.15,2.53,1.94.06,3.44-.45,4.92-.11-.97,1.98-1.07,3.17-5.98,4.35.04-2-2.33-.93-4.45-1.25s-2.29,2.37-.1,2.07l4.55-.82c-.12.85-.68,1.58-1.64,2.23l-13.75,9.34c-2.72,1.85-5.08,3.72-7.73,4.99-1.09-.47.99-15.25-2.17-11.4-.72,4.18-.36,8.56-.42,12.81-3.8,4.09-9.35,6.53-13.98,10.34-1.04.86-2.38.75-3.12,1.24-.06-5.7.48-11.57-.17-17.75s1.21-11.66-1.04-17.9c-2.29,6.24-.37,11.86-1.06,17.93-.76,6.67-.56,13.02-.35,19.21-.37.99-1,2.61-2.68,2.8-2.39.27-9.14,7.61-14.05,9.13-.29-10.68-.42-20.38.07-30.18,7.01-1.21,10.65.39,11.49.39,1.34-.01,1.86-1.83,1.22-2.41-.71-.65-.87-1.81-2.04-1.64-1.87.27-.35,2.81-10.61,1.58-.54-3.64-.52-7.33-.02-10.97,1.23-.48,2.05-1.63,3.18-2.79l5.94-6.12c.57-.59.79-1.18.8-1.7,3.47.38,6.76,3.78,12.12-1.38,2.51-2.42,2.88-5.33,1.39-8.63-1.09-2.41-4.41-3.71-5.82-5.5-1.36-4.67,1.07-25.16-1.54-26.91l-42.46-28.59-33.75-23.23-33.68-23.29c-1.98-1.37-3.3-2.26-5.36-3.66l-16.05-10.87c-.96-.65-1.63-2.05-1.63-3.28l.11-37.66c2.32-1.45,3.96-2.92,5.71-4.25,1.22,1.58,3.34,1.09,5.12.99h0ZM144.91,229.99c-1.71-1.9-3.44-3.03-5.9-3.99-1.57-.61-1.74-2.79-3.25-3.63-1.1-.61-1.57.64-1.68,1.19-.12.58.27,1.91,1.3,2.04,2.71.36,13.92,9.87,15.08,9.42,3.55-1.39-3.68-2.94-5.56-5.02h0ZM153,236.5c0-.28-.22-.5-.5-.5s-.5.22-.5.5.22.5.5.5.5-.22.5-.5ZM156.88,237.67c-.59-1.34-2.73-.78-2.78-.19.62.87,1.13,1.32,1.43,1.53.48.33,1.92-.03,1.35-1.34ZM160.88,240.67c-.6-1.34-2.73-.79-2.78-.18.61.85,1.13,1.31,1.45,1.53.41.28,1.92-.04,1.33-1.35ZM164.21,243.67c-.24-1.88-1.05-2.05-1.71-1.67-.55.31-.72.9-.52,1.51.23.7,1.23.11,1.92,1.03,1.86,1.04,2.79-.14.31-.87h0ZM217.12,324.15c2.58-3.08,5.74-4.21,7.81-7.17.56-.8-1.01-2.05-1.48-1.76s-1.85.04-2.4.88c-1.38,2.12-7.82,9.62-3.94,8.05h0ZM207.02,351.39c0-1.07-.87-1.94-1.94-1.94s-1.94.87-1.94,1.94.87,1.94,1.94,1.94,1.94-.87,1.94-1.94ZM200.43,358.12c-2.01-2.41-5.97-.55-5.09,1.29.96,2.01,5.27.76,5.09-1.29ZM207.29,358.77c-.2-1.9-3.4-1.83-3.78-.84-.66,1.71.88,2.65,1.9,2.66.64,0,2.06-.06,1.87-1.82h.01Z"/>
    <path class="st5" d="M89.15,84.99c.33,3.14.43,6.43,0,10.06-.31,2.71-7.22,2.46-7.64,10.23-.22,4.11,3.22,6.47,6.23,8.34,1.43,7.82.35,15.86.34,23.47-1.39.02-2.77.32-4.01.98-1.61-5.3-7.05-9.23-12.72-6.54-5.22,2.48-6,8.42-3.5,13.25-1.37.59-4.09,2.27-4,4.24.24,5.19.23,20.73-1.27,25.21-.5,1.48.97,2.54,1.91,2.51,1.18-.05,2.06-1.18,1.78-2.61-1.08-5.65-.59-11.19-.46-17.06.12-5.45-2.22-7.37,3.21-11.16,1.53.45,2.98,1.23,5.14,2.49l.39,41.08,15.09,10.99,15.32,10.53,27.85,19.08c1.38.94,2.46,1.98,3.33,2.95-.33.08-1.31.02-1.59.47.42,7.55,2.39,5.36,8.11,9.84,3.07,2.41,9.54,2.3,9.3.87,2.49-.17,14.18,8.69,14.87,9.71-.68-.44-.79.35-.8,1.12l-.23,13.83c-1.88-.88-3.98-1.7-4.83-3.74-.96-7.92.54-10.72.68-13.15.08-1.42-2.22-.62-2.97.04-1.18,1.03.73,1.9.97,3.13.61,3.17-1,6.16-.75,9.05-1.51-.09-3.08-.84-3.75-2.32.85-1.23.81-3.83-1-4.66-2.4-1.11-4.53-2.1-6.65-3.94-1.37-.66-1.89.71-.69,1.63l4.03,3.08c1.36,1.04,2.69,1.69,3.17,3.04-1.74-.17-5.86-3.5-8.78-5.38-5.4-3.46-11.39-5.98-15.16-10.78-.04-.16.18-1.22.51-1.36,1.8-.7,10.01,8.42,14.03,8.52-1.1-2.15-3.32-2.12-4.76-3.89-2.6-3.19-7.27-4.63-9.38-8.13-1.18-2.72.07-6.06-.61-9.06-.31-1.39-2.13-1.21-3.2-.8-.66.25-1.24,1.31-.98,2.26,3.85,1.84,2.82,8.49,2.36,11.54l-37.11-24.71-15.12-9.97-17.12-12.11c-2.31-1.64-.7-5.9-.81-7.99,3.51,2.33,8.96,8.49,13.21,10.45,4.82,1.25,9.89.25,14.97.06-6.04-2.39-10.39,2.05-16.93-3.83-1.4-1.26-10.53-9.34-11.14-8.96-.46-4.08-.37-8.26-.38-12.93l-.11-64.93c0-1.61.64-2.9,1.76-3.7l11.15-7.96c.28-.2,21.21-15.08,18.73-12.36v-.02Z"/>
    <path class="st0" d="M120.61,118.27l.09.9c-2.32,11.04-3.5,7.35-6.38,11.12-1.69,2.2-.47,5.55-.48,7.72l-.02,2c-.04,5.14-.18,10.41-.29,16.03-.04,1.9,1.44,2.24,2.34,2.7.62.32,1.26,1.5,2.17,1.38.77,1.62,2.73,1.86,3.97,2.83.97.77,1.97,1.53,3.01,2.25,6.27,4.34,12.42,8.89,18.99,12.75,1.04.61,1.84,1.71,3.01,2.28,1.35.67,2.31,1.97,3.8,2.46.69.23,1.8.88,2.36,1.35,6.69,5.56,14.43,9.75,21.76,15.18,2.66,1.97,5.31,3.99,8.15,4.81.39,1,1.32,1.65,2.26,2.17,3.68,2.05,6.65,5.23,10.55,6.87.47.83,1.3,1.53,2.12,2.09l23.26,15.71c1.28.86,2.4.73,3.41.55-.08.58.15,1.08.33,1.61.3.87,1.17,1.25,2.14,1.92l18.42,12.61c1.57,1.07,2.1,2.46,2.09,4.43l-.1,35.07c0,4.58,6.09,3.62,6.66,9.52.59,6.11-2.69,7.54-6.21,10.58-.62-.47-1.31-.74-2.07-.86-1.46-.23-3.58-.33-4.84-1.29-1.13-.86-1.59-2.79-3.12-3.34.1-2.4.08-4.86-.62-7.15l7.3-5.94.13-23.39.03-2.33c.02-1.68.08-3.36-.09-5.04-.05-.51-.23-1.02-.18-1.54.15-1.64.62-4.02.02-6.17l-49.1-33.43c-4.7-3.2-9.23-5.87-13.55-8.64l-2.04-1.31c-2.06-2.28-5.3-4.45-8.18-6.37l-24.62-16.37c-.59-.39-1.19-1.21-2.01-1.19-3.1-3.22-7.62-5.35-11.49-8.26-5.49-4.13-11.03-7.59-16.73-11.07-.52-.11-1.29,1.37-1.45,1.56-.52-4.6-4.81-3.76-4.88-8.99l-.05-4.26c-.01-.94.28-1.9.26-2.83l-.39-18.47c-2.97-1.78-6.47-3.92-6.83-7.19-.43-3.83.91-6.46,3.7-9.08,1.34-1.25.24-4.11.29-5.81l.39-14.4c.2-7.6-.81-14.83-.02-21.93.58-.64,1.38-1.15,2.15-1.57,1.1,12.46-.72,22.97.82,36.33l4.87-.03c1.42-4.06-1.87-14.08,1.51-13.81.67.05,1.73.73,1.37,1.88-.29.94-1.13,1.48-1.27,2.37-.57,3.62-.16,6.97-.36,10.62-1.91.58-3.99-.52-5.58.48-1.3.81-1.11,4.3.45,4.83,8.22,2.77,3.58,2.64,8.78,5.11h-.01ZM116.46,121.67c0-2.72-2.21-4.93-4.93-4.93s-4.93,2.21-4.93,4.93,2.21,4.93,4.93,4.93,4.93-2.21,4.93-4.93ZM250.99,297.96c0-2.73-2.21-4.94-4.94-4.94s-4.94,2.21-4.94,4.94,2.21,4.94,4.94,4.94,4.94-2.21,4.94-4.94Z"/>
    <path class="st5" d="M202.93,321.24l-8.95,7.64c-.58-4.06-.17-8.3-.22-12.88l-.32-27.94-22.31-15.09c-1.35-.92-2.45-1.77-3.12-2.89l.07-15.24c.09.17.52.14,1.03.17l38.92,26.3.16,22.74c0,1.49-.64,2.66-1.86,3.28-7.28,3.74-3.11,10.35-3.4,13.91h0Z"/>
    <path class="st5" d="M107.86,72.05c-.78,7.1.23,14.33.02,21.93l-.39,14.4c-.05,1.7,1.05,4.55-.29,5.81-2.8,2.62-4.13,5.26-3.7,9.08.36,3.27,3.86,5.41,6.83,7.19l.39,18.47c-6.47.58-13.06.64-19.55.24-.13-1.01-.11-2.04-.08-3.05l16.36-.09c2.18.27,2.19-2.35,0-2.07l-16.29-.11c.04-1.56-.06-3.12.02-4.68,5.43-.67,10.89.55,16.91-.66-5.66-1.26-11.29-.02-16.93-.67v-3.69l16.29-.13c2.19.28,2.19-2.35,0-2.07l-16.29-.11c-.01-5.92-.4-11.91.32-18.07,3.87-1.22,6.56-4.11,6.99-7.53.4-3.16-1.33-6.55-4.27-8.38-4.16-2.59-1.53-8.49-2.48-14.75.96-1.51,14.57-11.91,16.13-11.08v.02Z"/>
    <path class="st0" d="M91.73,83.13c.95,6.27-1.68,12.16,2.48,14.75,2.94,1.83,4.66,5.23,4.27,8.38-.43,3.42-3.11,6.31-6.99,7.53-.72,6.16-.33,12.14-.32,18.07v5.99c0,.44.04.89.02,1.33-.08,1.56.02,3.12-.02,4.68l-.07,2.27c-.03,1.01-.05,2.04.08,3.05.12.93-.02,1.84-.02,2.76l-.06,31.85,32.76,22.09c.31.21.82.16,1.1.4,7.68,6.56,16.67,11.47,25.12,17.77,1.05.78,2.22.93,3.09,1.18.53,1.45,1.87,2.12,3.05,2.91l23.71,16c4.92,3.32,5.24-1.65,9.9-2.28.43-.06.91-.06,1.34-.02,4.87.36,8.8,4.61,8.73,9.27l-.03,1.94c-1.62,1.44-2.61,3.63-4.87,4.8-2.88,1.49-6.05,1.18-8.72-.6-2.36-1.58-4.13-4.51-3.89-8.42l-12.39-7.71-3.01-2.29-44.17-29.66c-2.18-1.46-4.13-2.04-6.07-4.03-1.58-1.62-15.06-10.66-17.75-12.08-1.15-.61-2.09-2.86-3.93-2.24.34-1.66-6.62-4.34-6.65-6.84l-.35-38.88.02-8.01c.01-7.61,1.09-15.64-.34-23.47-3-1.87-6.45-4.23-6.23-8.34.42-7.77,7.32-7.52,7.64-10.23.42-3.63.32-6.92,0-10.06.69-.75,1.79-1.39,2.58-1.86h-.01ZM94.91,105.16c0-2.76-2.23-4.99-4.99-4.99s-4.99,2.23-4.99,4.99,2.23,4.99,4.99,4.99,4.99-2.23,4.99-4.99ZM196.04,250.21c0-2.78-2.25-5.03-5.03-5.03s-5.03,2.25-5.03,5.03,2.25,5.03,5.03,5.03,5.03-2.25,5.03-5.03Z"/>
    <path class="st5" d="M131.14,86.1c.11.7-.65,1.71-.65,2.89l-.06,27.02-.28,1.04-6.22-.14c-1.55-.03-2.67.46-3.32,1.34-5.2-2.47-.56-2.34-8.78-5.11-1.56-.53-1.75-4.02-.45-4.83,1.59-.99,3.67.1,5.58-.48.2-3.65-.21-7,.36-10.62.14-.89.98-1.43,1.27-2.37.36-1.15-.71-1.83-1.37-1.88-3.39-.27-.09,9.75-1.51,13.81l-4.87.03c-1.54-13.36.28-23.87-.82-36.33.7-.38.9-1.84,1.94-2.55l7.17-4.91c1.42-.97,2.63-1.84,4.04-2.03l.22,13.09c.02,1.07,1.56,1.01,1.84.03.17-2.68,1.33-14.9-.42-14.3.6-1.91,2.32-3.5,5.31-3.85,1.01,10.49-.56,20.38,1.03,30.14h-.01ZM117.45,76.74c.32-1.22,1.49-1.6,1.85-2.71.46-1.4-.92-2.08-1.58-2.06-.76.03-2.15.67-2.05,2.02.43,5.36-.12,10.22.78,15.09,1.31-4.19,0-7.96,1-12.35h0ZM126.74,79.49l-4.6.43.31,3.33,4.6-.43-.31-3.33ZM126.65,86.64l-4.46.21.2,4.31,4.46-.21-.2-4.31ZM126.88,93.93c-.94.46-1.43,1.11-2.23.92-.49-.12-.74-.99-1.88-.65,3.17,4.24-.75,18.28,3.21,15.27,1.62-1.24-1.45-9.01.91-15.53h-.01Z"/>
    <path class="st5" d="M130.01,119.08l.6,31.55c2,3.77,11.96,7.92,14.35,11.31v15.01c0,.72-.46,1.3-.97.97-6.57-3.86-12.73-8.41-18.99-12.75l-.24-23.09c-.04-3.46-.31-5.88,1.26-9.03.41-.82-2.03-1.31-2.57-.88-.96.77-.46,1.41-.46,2.87l.04,26.9c0,.7-.59,1.31-1.03.99-1.24-.97-3.2-1.21-3.97-2.83-.69-6.09,1.25-12.15-.98-19-2.49,6.34-.23,12-1.19,17.62-.89-.46-2.37-.8-2.34-2.7.11-5.62.25-10.89.29-16.03l4.18.23c1.27.07,1.99-.82,1.75-1.64-.65-2.17-3.8-.24-5.91-.59.02-2.17-1.21-5.51.48-7.72,2.89-3.76,4.06-.08,6.38-11.12,3.1-.34,6.21-.1,9.32-.08h0Z"/>
    <path class="st5" d="M190.35,193.01c-.22,2.82.22,5.72-.27,9.08-.33,2.22-5.55-.3-7,1.92-2.83-.82-5.49-2.84-8.15-4.81-7.32-5.42-15.06-9.62-21.76-15.18l-.07-16.17c1.12.62,2.55,1.03,3.98,1.99l29.93,20.04c1.59,1.06,2.36,2.08,3.35,3.14h-.01Z"/>
    <path class="st2" d="M262.88,283.07c-.11.93-.02,1.86-.02,2.79-4.51-1.51-12.73,2.02-12.69-1.35.03-2.83,6.15-.14,10.07-1.53l-.25-11.84c-2.43-1.16-11.21,2.25-9.93-1.45.88-2.56,5.36.21,8.75-.91,1.27-.42,1.38-3.43.17-3.85-2.35-.81-4.66.06-7.34-.32-2.08.16-2.11-1.93.02-1.69,3.75.35,6.68-.09,10.28-.63l-.52,16.73c-.06,1.92-.28,3.47,1.47,4.05h-.01Z"/>
    <path class="st0" d="M213.22,361.76c-.82.55-1.52,1.56-2.63,1.49-.2-6.18-.41-12.53.35-19.21.7-6.07-1.23-11.69,1.06-17.93,2.25,6.24.4,11.85,1.04,17.9s.11,12.05.17,17.75h.01Z"/>
    <path class="st5" d="M195.98,196.93l-.1,16.11c-3.9-1.63-6.87-4.82-10.55-6.87.95-.86,2.91-1.88,4.23-.64.96.9,1.06,2.51,2.55,2.66l.82-13.26c.43.84,2.97.43,3.06,1.99h0Z"/>
    <path class="st5" d="M150.88,166.03c.18,5.54.24,11.1-.08,16.64-1.49-.49-2.45-1.8-3.8-2.46.13-5.6-.36-11.24.33-16.8,1.44.63,2.36,1.71,3.55,2.63h0Z"/>
    <path class="st2" d="M192.93,194.94l-.82,13.26c-1.49-.15-1.59-1.76-2.55-2.66-1.32-1.25-3.28-.22-4.23.64-.93-.52-1.87-1.17-2.26-2.17,1.46-2.22,6.67.3,7-1.92.5-3.35.05-6.26.27-9.08.7.75,1.99.79,2.58,1.93h0Z"/>
    <path class="st2" d="M57.91,189.15c-.04-.74.18-1.55.1-2.28.62-.38,9.74,7.71,11.14,8.96,6.55,5.88,10.89,1.44,16.93,3.83-5.07.18-10.15,1.19-14.97-.06-4.25-1.96-9.7-8.12-13.21-10.45h0Z"/>
    <path class="st2" d="M130.08,244.84c-.44-.51-1.46-.55-2.02-.92.46-3.05,1.49-9.7-2.36-11.54-.27-.95.32-2.01.98-2.26,1.07-.4,2.89-.59,3.2.8.68,3-.57,6.35.61,9.06,2.1,3.5,6.78,4.94,9.38,8.13,1.44,1.77,3.65,1.74,4.76,3.89-4.03-.1-12.23-9.23-14.03-8.52-.33.13-.56,1.2-.51,1.36h-.01Z"/>
    <path class="st2" d="M124.79,59.81c1.75-.6.59,11.62.42,14.3-.29.98-1.83,1.04-1.84-.03l-.22-13.09c.42-.4.9-1.18,1.64-1.18Z"/>
    <path class="st2" d="M232.91,348.76c-.79.38-1.7,1.25-2.59,1.41.06-4.26-.3-8.63.42-12.81,3.16-3.85,1.09,10.93,2.17,11.4Z"/>
    <path class="st2" d="M147.34,163.4c-.69,5.57-.19,11.2-.33,16.8-1.17-.58-1.97-1.68-3.01-2.28.51.33.96-.25.96-.97v-15.01c1.03-.15,1.64,1.14,2.37,1.46h0Z"/>
    <path class="st2" d="M198.1,197.97l-.09,17.15c-.82-.55-1.65-1.26-2.12-2.09l.1-16.11c.81-.08,1.48.72,2.12,1.04h-.01Z"/>
    <path class="st2" d="M153.1,167.84l.07,16.17c-.56-.47-1.67-1.12-2.36-1.35.32-5.54.26-11.1.08-16.64.62.49,1.57,1.46,2.21,1.81h0Z"/>
    <path class="st2" d="M193.92,345c.03-.67.16-1.42.07-2.09,10.25,1.23,8.74-1.31,10.61-1.58,1.16-.17,1.33.99,2.04,1.64.64.58.11,2.4-1.22,2.41-.84,0-4.48-1.59-11.49-.39h0Z"/>
    <path class="st2" d="M168.08,254.83l-.07,15.24c-.82.05-1.57-.93-2.2-1.23l.23-13.83c0-.77.12-1.57.8-1.12.27.39.99.48,1.24.94Z"/>
    <path class="st2" d="M160.99,265.11c-.83.21-1.54-.57-2.07-.93-.25-2.89,1.36-5.89.75-9.05-.24-1.23-2.14-2.1-.97-3.13.75-.66,3.06-1.46,2.97-.04-.14,2.43-1.64,5.23-.68,13.15Z"/>
    <path class="st2" d="M203.88,321.35c0,.51-.23,1.11-.8,1.7l-5.94,6.12c-1.12,1.16-1.94,2.31-3.18,2.79.13-.92.14-2.15,0-3.07l8.95-7.64.95.11h.01Z"/>
    <path class="st2" d="M155.17,261.86c-.3-.29-.97-.47-1.14-.86-.48-1.35-1.81-2-3.17-3.04l-4.03-3.08c-1.2-.92-.68-2.3.69-1.63,2.12,1.84,4.24,2.83,6.65,3.94,1.8.83,1.85,3.43,1,4.66h0Z"/>
    <path class="st2" d="M262.72,325.16c0,1.08-.26,1.77-.71,2.69-1.47-.33-2.97.18-4.92.11-1.1-.03-1.21-1.82-1.15-2.53.05-.64.68-1.74,1.95-1.45,1.94.45,3.29,1.42,4.82,1.17h0Z"/>
    <path class="st2" d="M130.14,117.06c-.17.62-.14,1.36-.13,2.02-3.11-.01-6.22-.26-9.32.08l-.09-.9c.64-.88,1.76-1.38,3.32-1.34l6.22.14Z"/>
    <path class="st0" d="M84.08,138.06c.25,1.98-1.01,4.08-1.13,6.04-1.76,1.32-3.4,2.8-5.71,4.25l-.11,37.66c0,1.23.67,2.63,1.63,3.28l16.05,10.87c2.06,1.4,3.38,2.29,5.36,3.66l33.68,23.29,33.75,23.23,42.46,28.59c2.61,1.75.18,22.24,1.54,26.91,1.41,1.8,4.73,3.09,5.82,5.5,1.49,3.3,1.12,6.2-1.39,8.63-5.36,5.17-8.64,1.77-12.12,1.38l-.95-.11c.29-3.56-3.88-10.17,3.4-13.91,1.22-.63,1.87-1.79,1.86-3.28l-.16-22.74-38.92-26.3c-.51-.03-.94,0-1.03-.17-.25-.46-.97-.55-1.24-.94-.69-1.02-12.38-9.87-14.87-9.71-.3-1.12-1.3-1.74-2.22-2.33-3.96-2.56-7.6-5.64-11.8-7.79-.51-.26-1.08-1.13-1.8-1.06-.87-.96-1.95-2-3.33-2.95l-27.85-19.08-15.32-10.53-15.09-10.99-.39-41.08c-2.16-1.26-3.61-2.04-5.14-2.49-.26-.4-.76-.88-1.17-1.12-2.5-4.83-1.72-10.77,3.5-13.25,5.66-2.69,11.1,1.24,12.72,6.54h-.03ZM80.21,139.25c0-2.81-2.28-5.08-5.08-5.08s-5.08,2.28-5.08,5.08,2.28,5.08,5.08,5.08,5.08-2.28,5.08-5.08ZM214.62,314.51c0-2.63-2.13-4.77-4.77-4.77s-4.77,2.13-4.77,4.77,2.13,4.77,4.77,4.77,4.77-2.13,4.77-4.77Z"/>
    <path class="st0" d="M179.01,215.07c.62.26,1.27.86,1.95.96.53.96,1.44,1.72,2.62,2.54l11.66,8.17,9.75,6.48.85.04c.2.85,1.03,1.3,1.97,1.94l21.37,14.6c5.02,3.43,2.81,6.07,2.81,13.18v35c0,.66-.04,1.34,0,2,.31,5.5.67,11.03.52,17.06-.08,3.13,8.78,4.16,6.99,12.21-.65,2.91-2.88,5.98-6.69,6.55-4.26.63-8.03-2.17-9.17-5.96-2.38-7.94,5.92-9.35,5.98-12.81l.21-12.1c.05-3.18.25-5.96-.13-8.62-.11-.75-.12-1.65-.05-2.41.72-8.33.6-30.77-.34-40.36l-27.77-19.16c-1.54-1.06-3.02-1.9-4.43-2.34-.56-.3-1.21-1.4-2.04-1.33-.65-1.52-2.22-2.37-3.84-2.65-.35-.47-.93-.65-1.35-1.02-.27-.23-.77-.64-.93-.93-.11-1.16-1.67-.89-2.18-1.41-1.56-1.61-9.64-7.48-11.93-8.02-.91-1.97-3.26-2.24-4.82-3.4-8.32-6.22-16.92-12.24-25.97-17.33-.92-.52-1.75-2.1-3.11-2.02-4.03-4.11-9.27-7.78-14.77-9.67-1.08-.37-1.43.22-2.26.59l-2.73,1.21c-3.87,1.71-8.04,1.72-10.6-1.65-1.12-1.47-1.77-3.1-2.42-4.41-.22-.45-.17-1.52-.01-2,.77-2.33,2.8-6.9,6.21-7.77,3.04-.78,5.74.47,7.81,2.08,2.29,1.79,2.8,4.37,3.07,7.61.12,1.38,2.5.97,3.38,1.56l16.25,10.85c5.88,3.92,30.27,21.09,34.14,22.74h0ZM121.83,178.7c0-2.84-2.3-5.14-5.14-5.14s-5.14,2.3-5.14,5.14,2.3,5.14,5.14,5.14,5.14-2.3,5.14-5.14ZM236.48,327.54c0-2.77-2.25-5.02-5.02-5.02s-5.02,2.25-5.02,5.02,2.25,5.02,5.02,5.02,5.02-2.25,5.02-5.02Z"/>
    <path class="st2" d="M229.66,293.92c-.07.76-.06,1.66.05,2.41-.5,1.29-7.52-5.16-8.43-6.17l.05-24.24c-9.54-9.64-8.7-12.72-21.45-12.88l.03-1.94c3.02.52,7.53-1.26,10.4.72l12.92,12.94.67,24.26c.07,2.5,4.08,4.22,5.78,4.9h-.02Z"/>
    <path class="st2" d="M225,233c-.18-.53-.41-1.04-.33-1.61,2.17-.39,4.62-.71,7.36-.34,11.46,1.52,9.57-4.69,20.34,8.3,1.86,5.35-1.56,12.21,1.21,16.06.92,1.28-.31,2.5-1.12,2.72-4.94,1.38.08-4.58-1.26-9.23-.79-2.72.57-6.08-.8-8.5-1.55-2.75-4.56-4.79-6.86-7.03-1.77-1.72-14.86.35-18.55-.36h0Z"/>
    <path class="st2" d="M95.07,190.81c1.83-.62,2.78,1.63,3.93,2.24-9.93,2.41-11.71-2.03-15.19-3.95-3.92-2.16-.72-8.67-2.11-14.85-.54-2.4-.13-4.1-.03-6.46l.8-19.86,1.04,20.58c.11,2.14.78,2.78.03,5.03-1.35,4.09-.25,9,.61,13.22-.16-.79,4.62,6.18,10.91,4.05h.01Z"/>
    <path class="st2" d="M247.99,307.13c.78,5.09.16,10.29-.03,15.92-.07,2.02,1.53,11.79-2.12,10.51-2.58-.91.48-2.82.51-7.53l.11-14.05c.02-2.2.45-4.14-.55-5.71.75.12,1.45.4,2.07.86h0Z"/>
    <path class="st2" d="M241.09,304.98c-3.8.16,2.25,15.26-5.34,13.48,4.38-2.78,2.05-15.05,1.12-16.64.36.02.74-.17,1.1-.18,1.52.54,1.99,2.48,3.12,3.34Z"/>
    <path class="st2" d="M236.87,301.83c-1-.04-1.57-.96-1.87-1.83.89.35,1.39,1.01,1.87,1.83Z"/>
    <path class="st2" d="M235,300h-3c-.04-.66,0-1.34,0-2,1.51-.24,2.43.8,3,2Z"/>
    <path class="st2" d="M88.08,137.08l-.02,8.01c-1.77.1-3.89.59-5.12-.99.11-1.96,1.38-4.06,1.13-6.04,1.23-.66,2.61-.96,4.01-.98Z"/>
    <path class="st2" d="M217.12,324.15c-3.88,1.56,2.55-5.93,3.94-8.05.55-.84,1.93-.6,2.4-.88s2.04.96,1.48,1.76c-2.07,2.96-5.22,4.1-7.81,7.17h0Z"/>
    <path class="st2" d="M170,241.11c-2.33-1.33.48,8.56-2.38,7.52-1.37-3.58-.27-6.7-.62-9.81l3.01,2.29h0Z"/>
    <path class="st2" d="M207.29,358.77c.18,1.76-1.24,1.82-1.87,1.82-1.03,0-2.56-.94-1.9-2.66.38-.99,3.58-1.06,3.78.84h-.01Z"/>
    <circle class="st2" cx="205.08" cy="351.39" r="1.94"/>
    <path class="st2" d="M144.91,229.99c1.88,2.09,9.11,3.64,5.56,5.02-1.16.45-12.37-9.06-15.08-9.42-1.03-.14-1.42-1.46-1.3-2.04.11-.55.58-1.8,1.68-1.19,1.51.84,1.68,3.02,3.25,3.63,2.46.96,4.19,2.1,5.9,3.99h0Z"/>
    <path class="st2" d="M200.43,358.12c.18,2.06-4.13,3.3-5.09,1.29-.88-1.85,3.07-3.71,5.09-1.29Z"/>
    <path class="st2" d="M256.03,332.19l-4.55.82c-2.19.3-2.06-2.39.1-2.07s4.49-.75,4.45,1.25Z"/>
    <path class="st2" d="M156.88,237.67c.58,1.31-.86,1.67-1.35,1.34-.31-.21-.81-.66-1.43-1.53.05-.59,2.19-1.15,2.78.19Z"/>
    <path class="st2" d="M160.88,240.67c.58,1.31-.92,1.63-1.33,1.35-.32-.22-.84-.69-1.45-1.53.05-.6,2.18-1.16,2.78.18Z"/>
    <path class="st2" d="M164.21,243.67c2.48.74,1.55,1.91-.31.87-.69-.92-1.69-.34-1.92-1.03-.2-.61-.03-1.2.52-1.51.66-.37,1.47-.21,1.71,1.67h0Z"/>
    <circle class="st2" cx="152.5" cy="236.5" r=".5"/>
    <path class="st2" d="M67.86,144.77c.41.24.91.72,1.17,1.12-5.43,3.78-3.09,5.7-3.21,11.16-.13,5.88-.62,11.42.46,17.06.27,1.43-.6,2.56-1.78,2.61-.94.04-2.41-1.03-1.91-2.51,1.5-4.47,1.52-20.02,1.27-25.21-.09-1.97,2.63-3.65,4-4.24h0Z"/>
    <path class="st2" d="M136.15,233.01c.72-.07,1.29.8,1.8,1.06-.64-.08-1.06.03-1.02.4.06.57-.27,1.93.22,2.44,1.99,2.09,10.7,8.97,12.6,4.95.93.6,1.93,1.22,2.22,2.33.24,1.43-6.23,1.54-9.3-.87-5.72-4.48-7.69-2.3-8.11-9.84.28-.46,1.26-.39,1.59-.47Z"/>
    <path class="st5" d="M110.46,151.76l.05,4.26c.07,5.23,4.36,4.38,4.88,8.99.17-.19.93-1.66,1.45-1.56,5.71,3.48,11.24,6.94,16.73,11.07,3.87,2.91,8.39,5.04,11.49,8.26-.27,1.89-.52,9.9,2.88,10.05,3.01.13,5.88,1.06,8.82-.85-3.41-2.2-6.34-.33-9.68-1.07-.26-2.53-.05-4.8,0-6.95l24.62,16.37c2.88,1.92,6.12,4.09,8.18,6.37-.77.18-.99,1.09-.97,2.23l.1,6.14c-3.87-1.65-28.26-18.82-34.14-22.74l-16.25-10.85c-.88-.59-3.27-.18-3.38-1.56-.27-3.24-.78-5.82-3.07-7.61-2.06-1.61-4.76-2.86-7.81-2.08-3.41.87-5.44,5.44-6.21,7.77-3.8.63-10.96-1.45-14.28,1.85.75,1.56,1.89,1.26,3.07,1.06,3.98-1.02,7.63-1.25,11.22-.91.66,1.31,1.3,2.93,2.42,4.41,2.56,3.37,6.73,3.36,10.6,1.65l2.73-1.21-.05,21.03-32.76-22.09.06-31.85c1.37-.34,2.93-.36,4.8-.34l14.5.17h0Z"/>
    <path class="st5" d="M244.55,256.27c-3.16-.8-7.37-5.23-10.56-5.59-.49,2.54,9.19,8.23,10.74,7.13.18,1.67.12,3.36.09,5.04l-12.82.16c0-7.12,2.21-9.75-2.81-13.18l-21.37-14.6c-.95-.65-1.77-1.09-1.97-1.94.83-3.12,3.78,3.65,7.97,2.76.28.64-.16,1.63.76,1.93.78.25,1.54.39,2.26.25-.6,2.63,5.15,4.74,6.27,4.73.28,1.87,2.24,3.54,4.11,3.03-.03,1.91,2.73,3.74,4.61,3.48-.09-2.12-2.66-4.01-4.61-3.48.03-2-2.23-3.03-4.11-3.03-.33-2.26-4.98-4.98-6.27-4.73.17-.73-.35-1.49-.8-1.81-.63-.45-1.59-.51-2.23-.37-1.63-3.78-4.93-6.6-9.55-5.65.29,1.09.66,1.95.73,2.85l-9.75-6.48-11.66-8.17c-1.18-.82-2.09-1.58-2.62-2.54,2.63-1.52-1.21-8.33.96-8.01,4.32,2.78,8.85,5.44,13.55,8.64l49.1,33.43c.6,2.15.13,4.53-.02,6.17v-.02Z"/>
    <circle class="st5" cx="246.05" cy="297.96" r="4.94"/>
    <circle class="st5" cx="111.53" cy="121.67" r="4.93"/>
    <path class="st2" d="M125.01,165.17c-1.04-.72-2.03-1.48-3.01-2.25.44.33,1.03-.28,1.03-.99l-.04-26.9c0-1.46-.5-2.09.46-2.87.54-.44,2.98.05,2.57.88-1.57,3.15-1.29,5.57-1.26,9.03l.24,23.09h.01Z"/>
    <path class="st2" d="M110.72,148.93c.02.94-.27,1.9-.26,2.83l-14.5-.17c-1.87-.02-3.43,0-4.8.34,0-.93.14-1.83.02-2.76,6.49.4,13.08.33,19.55-.24h0Z"/>
    <path class="st2" d="M118.03,160.1c-.91.13-1.55-1.06-2.17-1.38.96-5.62-1.3-11.29,1.19-17.62,2.22,6.85.29,12.91.98,19Z"/>
    <path class="st2" d="M147.08,183.97c-.04,2.14-.25,4.42,0,6.95,3.34.74,6.27-1.13,9.68,1.07-2.93,1.9-5.81.98-8.82.85-3.4-.15-3.15-8.16-2.88-10.05.82-.02,1.42.8,2.01,1.19h.01Z"/>
    <path class="st2" d="M244.55,256.27c-.05.52.13,1.03.18,1.54-1.55,1.11-11.23-4.58-10.74-7.13,3.19.36,7.4,4.79,10.56,5.59h0Z"/>
    <polygon class="st2" points="244.82 262.84 244.79 265.17 232 265 232 263 244.82 262.84"/>
    <path class="st2" d="M181.92,208.02c-2.17-.31,1.66,6.49-.96,8.01-.68-.1-1.33-.7-1.95-.96l-.1-6.14c-.02-1.14.2-2.05.97-2.23l2.04,1.31h0Z"/>
    <path class="st2" d="M113.82,140l.02-2c2.12.36,5.26-1.58,5.91.59.25.82-.48,1.71-1.75,1.64l-4.18-.23Z"/>
    <path class="st2" d="M91.17,134.16v-2.3l16.28.11c2.19-.28,2.19,2.35,0,2.07l-16.28.13h0Z"/>
    <path class="st2" d="M91.09,146.13l.07-2.27,16.29.11c2.19-.28,2.19,2.34,0,2.07l-16.36.09Z"/>
    <path class="st2" d="M91.18,139.17c.02-.44-.02-.89-.02-1.33,5.64.65,11.27-.59,16.93.67-6.02,1.22-11.49,0-16.91.66Z"/>
    <path class="st5" d="M140.94,193.93c-1.91.58-4.13-.07-6.17.82l.15,16.75c-.27,2.2,2.27,2.14,2.15-.08-.05-5.16-.46-9.64.28-14.24,2.44-.92,4.62-1.06,6.7-1.23,9.04,5.09,17.65,11.11,25.97,17.33-.47.83-1.61,1.1-2.95,1.11l-15.05.17c-6.98.08-5.93-1.87-7.42-.24-.44.48-.77,1.65-.29,2.09.68.62,27.46.8,30.53.27,2.28.54,10.36,6.41,11.93,8.02-10.36,1.05-23.72-.57-33.6.51-.87-.25-2.04-.4-3.09-1.18-8.44-6.29-17.44-11.2-25.12-17.77.69-.22,1.05-1.08,1.06-2.2l.16-19.81c5.5,1.89,10.74,5.56,14.77,9.67h0Z"/>
    <path class="st5" d="M195.07,230.72c1.37,4.98-1.95,10.18,2.06,8.76,1.63-.58-1.37-4.13,0-7.43,1.42.44,2.89,1.28,4.43,2.34l27.77,19.16c.94,9.59,1.07,32.03.34,40.36-1.7-.69-5.71-2.4-5.78-4.9l-.67-24.26-12.92-12.94c-2.87-1.98-7.38-.2-10.4-.72.07-4.66-3.86-8.91-8.73-9.27-.22-4.58-.36-9.19.06-13.76,1.61.28,3.19,1.13,3.84,2.65h0Z"/>
    <path class="st5" d="M189.87,227.06l-.04,14.8c-4.66.63-4.98,5.6-9.9,2.28l-23.71-16c.45-.76,1.43-1.16,2.73-1.16l27.07.05c1.26-.21,2.19-.47,2.92-.9.15.29.66.7.93.93h0Z"/>
    <circle class="st5" cx="191" cy="250.21" r="5.03"/>
    <circle class="st5" cx="89.92" cy="105.16" r="4.99"/>
    <path class="st2" d="M186.77,224.71c.51.53,2.07.26,2.18,1.41-.73.43-1.66.7-2.92.9l-27.07-.05c-1.3,0-2.28.4-2.73,1.16-1.18-.8-2.53-1.46-3.05-2.91,9.88-1.08,23.24.54,33.6-.51h0Z"/>
    <path class="st2" d="M126.17,184.27l-.16,19.81c0,1.12-.37,1.98-1.06,2.2-.28-.24-.79-.19-1.1-.4l.05-21.03c.83-.37,1.19-.96,2.26-.59h0Z"/>
    <path class="st2" d="M191.23,228.07c-.41,4.57-.28,9.18-.06,13.76-.43-.03-.92-.03-1.34.02l.04-14.8c.43.36,1.01.54,1.35,1.02h0Z"/>
    <path class="st2" d="M126.88,93.93c-2.36,6.52.71,14.29-.91,15.53-3.95,3.02-.04-11.03-3.21-15.27,1.14-.34,1.39.53,1.88.65.8.2,1.29-.46,2.23-.92h.01Z"/>
    <path class="st2" d="M117.45,76.74c-1.01,4.39.3,8.16-1,12.35-.9-4.87-.35-9.74-.78-15.09-.11-1.35,1.29-1.99,2.05-2.02.66-.02,2.04.66,1.58,2.06-.36,1.11-1.53,1.49-1.85,2.71h0Z"/>
    <rect class="st2" x="122.29" y="86.73" width="4.46" height="4.32" transform="translate(-4.06 5.99) rotate(-2.71)"/>
    <rect class="st2" x="122.29" y="79.7" width="4.62" height="3.34" transform="translate(-7.03 11.95) rotate(-5.34)"/>
    <circle class="st5" cx="75.13" cy="139.25" r="5.08"/>
    <circle class="st5" cx="209.86" cy="314.51" r="4.77"/>
    <path class="st5" d="M149.75,241.85c-1.9,4.02-10.61-2.86-12.6-4.95-.49-.51-.16-1.86-.22-2.44-.04-.37.38-.48,1.02-.4,4.2,2.15,7.84,5.23,11.8,7.79Z"/>
    <path class="st2" d="M170.02,213.28c1.55,1.16,3.91,1.43,4.82,3.4-3.08.53-29.86.34-30.53-.27-.48-.44-.14-1.61.29-2.09,1.49-1.63.44.32,7.42.24l15.05-.17c1.35-.02,2.48-.28,2.95-1.11Z"/>
    <circle class="st5" cx="231.46" cy="327.54" r="5.02"/>
    <circle class="st5" cx="116.69" cy="178.7" r="5.14"/>
    <path class="st2" d="M140.94,193.93c1.36-.09,2.19,1.5,3.11,2.02-2.09.17-4.26.31-6.7,1.23-.74,4.61-.33,9.09-.28,14.24.13,2.22-2.42,2.28-2.15.08l-.15-16.75c2.04-.88,4.26-.24,6.17-.82h0Z"/>
    <path class="st2" d="M108.15,178c-.16.48-.21,1.55.01,2-3.59-.34-7.24-.12-11.22.91-1.18.2-2.32.51-3.07-1.06,3.31-3.3,10.47-1.21,14.28-1.85Z"/>
    <path class="st2" d="M223.12,242.95c-1.12,0-6.87-2.11-6.27-4.73,1.29-.24,5.94,2.47,6.27,4.73Z"/>
    <path class="st2" d="M213.82,236.03c-4.19.9-7.14-5.88-7.97-2.76l-.85-.04c-.07-.9-.44-1.76-.73-2.85,4.62-.95,7.92,1.86,9.55,5.65Z"/>
    <path class="st2" d="M227.22,245.97c1.95-.53,4.52,1.36,4.61,3.48-1.88.26-4.63-1.56-4.61-3.48Z"/>
    <path class="st2" d="M227.22,245.97c-1.87.51-3.83-1.16-4.11-3.03,1.88,0,4.13,1.02,4.11,3.03Z"/>
    <path class="st2" d="M216.85,238.21c-.72.14-1.48,0-2.26-.25-.93-.3-.49-1.29-.76-1.93.64-.14,1.6-.07,2.23.37.45.32.96,1.08.8,1.81h-.01Z"/>
    <path class="st2" d="M197.11,232.05c-1.36,3.3,1.65,6.86,0,7.43-4,1.41-.68-3.78-2.06-8.76.84-.07,1.49,1.03,2.04,1.33h.01Z"/>
    <path class="st2" d="M232,292v-2c.5.05,1.09-.17,1.5,0,.53.23.75.88.5,1.48-.31.75-1.26.56-2,.51h0Z"/>
    <g>
      <path class="st1" d="M273.98,115l.05,29.22c-5.14-.71-8.48-4.05-12.45-6.79l-20.14-13.89c-2.11-1.45-4.24-.26-5.75,1.05-2.45,2.12-4.93,3.73-7.5,5.64l-23.57,17.46c-1.3.96-3.48.02-4.63-.76l-17.27-11.66-21.52-14.56c-1.52-1.03-5.05-2.44-5.05-4.75l-.18-83.86c0-1.1.35-1.65.71-1.82.44-.21,1.43-.5,2.09-.05l7.79,5.24,6.98,5.01,7.63,5.42,43.09,30.8,17.14,12.04,15.74,11.21,6.42,4.52,8.66,6.38c1.08.8,1.78,2.72,1.78,4.15h-.02Z"/>
      <path class="st1" d="M234.11,172.51l-.12-24.62c-2.73.27-4.39,2.17-6.39,3.7-6.73,5.16-12.88,10.43-20.94,15.01-1.39-3.89-.46-7.43-.5-11.41l17.02-12.98c4-3.05,8.28-5.69,11.98-9.03,2.4-2.18,4.95-3.32,7.69-1,9.38,7.96,19.92,13.87,29.75,21.13,2.33,2.92,1.74,8.43.26,11.97l-27.73-17.8-.31,28.32c-2.29,2.04-6.66,2.09-9.37.73-1.03-.52-1.33-2.47-1.34-4.03h0Z"/>
    </g>
  </g>
  <g>
    <path class="st1" d="M424.81,133.76v28h-65.88c-11.61,0-16.76,7.83-16.76,18.98,0,9.73,4,18.98,19.04,18.98h30.08c35.03,0,43.22,24.2,43.22,47.21,0,27.05-11.61,46.98-40.94,46.98h-71.59v-28h72.35c12.19,0,17.71-8.3,17.71-19.93,0-10.44-4.38-19.93-20.18-19.93h-29.89c-34.27,0-42.27-23.96-42.27-46.27,0-26.57,11.42-46.03,39.98-46.03h65.12Z"/>
    <path class="st1" d="M529.53,133.76c37.32,0,58.07,26.57,58.07,80.43s-20.56,79.72-58.07,79.72h-17.52c-37.51,0-58.07-26.1-58.07-79.72s20.75-80.43,58.07-80.43h17.52ZM512.01,161.76c-24.75,0-35.6,15.66-35.6,52.43s10.66,51.72,35.6,51.72h17.52c24.75,0,35.41-15.18,35.41-51.96s-10.66-52.2-35.41-52.2h-17.52Z"/>
    <path class="st1" d="M635.2,133.76v104.63c0,15.42,6.09,27.52,26.28,27.52h49.88v28h-51.22c-34.08,0-47.41-23.25-47.41-55.28v-104.87h22.47Z"/>
    <path class="st1" d="M733.45,133.76l39.03,128.83c1.14,3.8,3.24,5.46,6.28,5.46s4.95-1.66,6.28-5.46l40.94-128.83h24.94l-45.31,142.36c-4.76,14.95-13.52,20.64-26.85,20.64-12.57,0-22.28-4.98-27.04-20.64l-43.03-142.36h24.75Z"/>
    <path class="st1" d="M972.59,133.76v28h-64.36c-13.52,0-19.42,7.83-19.42,20.17,0,13.05,6.66,18.98,19.61,18.98h63.21v25.39h-63.78c-12.95,0-19.61,6.41-19.61,19.46s6.28,20.17,19.42,20.17h65.12v28h-65.12c-30.46,0-42.84-18.74-42.84-43.66,0-18.27,6.66-30.61,18.47-36.78-12-6.17-18.09-18.51-18.09-36.06,0-25.62,12.76-43.66,43.03-43.66h64.36Z"/>
    <path class="st1" d="M1022.67,133.76l39.41,59.08,41.32-59.08h27.8l-55.03,78.77,55.41,81.38h-27.42l-42.65-63.58-43.79,63.58h-27.8l57.5-83.52-52.17-76.63h27.42Z"/>
  </g>
</svg>